<?xml version="1.0" encoding="UTF-8"?>
<svg xmlns="http://www.w3.org/2000/svg" xmlns:xlink="http://www.w3.org/1999/xlink" viewBox="0 0 48 48" width="48px" height="48px">
<g id="surface38252503">
<path style=" stroke:none;fill-rule:nonzero;fill:rgb(40.000001%,40.000001%,40.000001%);fill-opacity:1;" d="M 33.875 2.125 L 7.75 28.25 L 2.148438 45.851562 L 19.75 40.25 L 45.875 14.125 C 45.875 14.125 45.675781 9.921875 41.875 6.125 C 38.074219 2.324219 33.875 2.125 33.875 2.125 Z M 34.625 5.375 C 36.769531 5.78125 38.476562 6.691406 39.792969 8.042969 C 41.109375 9.394531 42.035156 11.191406 42.625 13.375 L 39 17 L 31 9 Z M 9.957031 30.253906 C 9.980469 30.261719 12.363281 30.863281 14.75 33.25 C 17.351562 35.648438 17.75 37.851562 17.75 37.851562 L 17.835938 37.953125 L 10.738281 40.238281 L 7.746094 37.246094 Z M 9.957031 30.253906 "/>
</g>
</svg>
