<?xml version="1.0"?>
<svg xmlns="http://www.w3.org/2000/svg" xmlns:xlink="http://www.w3.org/1999/xlink" xmlns:svgjs="http://svgjs.com/svgjs" version="1.1" width="512" height="512" x="0" y="0" viewBox="0 0 512 512" style="enable-background:new 0 0 512 512" xml:space="preserve" class=""><g><linearGradient xmlns="http://www.w3.org/2000/svg" id="a" gradientUnits="userSpaceOnUse" x1="36.722" x2="537.027" y1="507.278" y2="6.973" data-name="New Gradient Swatch 1"><stop stop-opacity="1" stop-color="#01a0c7" offset="0"/><stop stop-opacity="1" stop-color="#01a0c7" offset="0.518"/><stop stop-opacity="1" stop-color="#01a0c7" offset="1"/></linearGradient><linearGradient xmlns="http://www.w3.org/2000/svg" xmlns:xlink="http://www.w3.org/1999/xlink" id="b" x1="234.722" x2="735.027" xlink:href="#a" y1="705.278" y2="204.973"/><linearGradient xmlns="http://www.w3.org/2000/svg" xmlns:xlink="http://www.w3.org/1999/xlink" id="c" x1="-63.278" x2="437.027" xlink:href="#a" y1="407.278" y2="-93.027"/><linearGradient xmlns="http://www.w3.org/2000/svg" xmlns:xlink="http://www.w3.org/1999/xlink" id="d" x1="-97.278" x2="403.027" xlink:href="#a" y1="373.278" y2="-127.027"/><linearGradient xmlns="http://www.w3.org/2000/svg" xmlns:xlink="http://www.w3.org/1999/xlink" id="e" x1="-11.278" x2="489.027" xlink:href="#a" y1="459.278" y2="-41.027"/><linearGradient xmlns="http://www.w3.org/2000/svg" xmlns:xlink="http://www.w3.org/1999/xlink" id="f" x1="-35.278" x2="465.027" xlink:href="#a" y1="435.278" y2="-65.027"/><linearGradient xmlns="http://www.w3.org/2000/svg" xmlns:xlink="http://www.w3.org/1999/xlink" id="g" x1="-9.278" x2="491.027" xlink:href="#a" y1="461.278" y2="-39.027"/><linearGradient xmlns="http://www.w3.org/2000/svg" xmlns:xlink="http://www.w3.org/1999/xlink" id="h" x1="110.722" x2="611.027" xlink:href="#a" y1="581.278" y2="80.973"/><linearGradient xmlns="http://www.w3.org/2000/svg" xmlns:xlink="http://www.w3.org/1999/xlink" id="i" x1="52.722" x2="553.027" xlink:href="#a" y1="523.278" y2="22.973"/><linearGradient xmlns="http://www.w3.org/2000/svg" xmlns:xlink="http://www.w3.org/1999/xlink" id="j" x1="76.722" x2="577.027" xlink:href="#a" y1="547.278" y2="46.973"/><g xmlns="http://www.w3.org/2000/svg"><path d="m464 440h-8v-16a8 8 0 0 0 -8-8h-16v-200h16a8 8 0 0 0 8-8v-24a8 8 0 0 0 -8-8h-104v-8h56a8 8 0 0 0 8-8v-96a8 8 0 0 0 -8-8h-288a8 8 0 0 0 -8 8v96a8 8 0 0 0 8 8h56v8h-104a8 8 0 0 0 -8 8v24a8 8 0 0 0 8 8h16v200h-16a8 8 0 0 0 -8 8v16h-40a8 8 0 0 0 0 16h448a8 8 0 0 0 0-16zm-344-288v-80h272v80zm208 16v8h-144v-8zm-256 32v-8h368v8zm256 56h-144a8 8 0 0 0 -8 8v152h-80v-200h320v200h-80v-152a8 8 0 0 0 -8-8zm-8 16v144h-56v-144zm-72 0v144h-56v-144zm192 168h-368v-8h368z" fill="url(#a)" data-original="url(#a)" style="" class=""/><path d="m496 440h-8a8 8 0 0 0 0 16h8a8 8 0 0 0 0-16z" fill="url(#b)" data-original="url(#b)" style="" class=""/><path d="m216 144h32a8 8 0 0 0 8-8v-48a8 8 0 0 0 -8-8h-32a8 8 0 0 0 -8 8v48a8 8 0 0 0 8 8zm8-48h16v32h-16z" fill="url(#c)" data-original="url(#c)" style=""/><path d="m200 112v-24a8 8 0 0 0 -8-8h-32a8 8 0 0 0 -8 8v48a8 8 0 0 0 16 0v-16h24a8 8 0 0 0 8-8zm-16-8h-16v-8h16z" fill="url(#d)" data-original="url(#d)" style="" class=""/><path d="m328 96h8v40a8 8 0 0 0 16 0v-40h8a8 8 0 0 0 0-16h-32a8 8 0 0 0 0 16z" fill="url(#e)" data-original="url(#e)" style=""/><path d="m272 128a8 8 0 0 0 0 16h32a8 8 0 0 0 8-8v-24a8 8 0 0 0 -8-8h-24v-8h24a8 8 0 0 0 0-16h-32a8 8 0 0 0 -8 8v24a8 8 0 0 0 8 8h24v8z" fill="url(#f)" data-original="url(#f)" style=""/><path d="m160 256h-48a8 8 0 0 0 -8 8v104a8 8 0 0 0 8 8h48a8 8 0 0 0 8-8v-104a8 8 0 0 0 -8-8zm-8 104h-32v-88h32z" fill="url(#g)" data-original="url(#g)" style=""/><path d="m352 376h48a8 8 0 0 0 8-8v-104a8 8 0 0 0 -8-8h-48a8 8 0 0 0 -8 8v104a8 8 0 0 0 8 8zm8-104h32v88h-32z" fill="url(#h)" data-original="url(#h)" style=""/><path d="m232 328a8 8 0 0 0 -8 8v16a8 8 0 0 0 16 0v-16a8 8 0 0 0 -8-8z" fill="url(#i)" data-original="url(#i)" style=""/><path d="m280 328a8 8 0 0 0 -8 8v16a8 8 0 0 0 16 0v-16a8 8 0 0 0 -8-8z" fill="url(#j)" data-original="url(#j)" style=""/></g></g></svg>
